# Blender v2.79 (sub 0) OBJ File: 'butterfly3.blend'
# www.blender.org
mtllib butterfly3.mtl
o Cube
v 0.009556 0.940035 1.052582
v 0.637756 0.088772 0.082927
v -0.758025 0.881162 -0.796336
v 0.431296 0.100384 -0.546697
v 0.291837 -0.030600 0.389955
v 0.094760 0.120370 -0.048894
v -0.087355 -0.154212 -0.009534
v -0.115849 -0.112634 -0.560155
v 0.014538 -0.024615 -0.003463
v -0.031962 0.086202 0.012129
v -0.455716 0.400166 -0.992222
v -0.115849 -0.112634 -0.560155
v -0.397466 0.363475 -0.635708
v 0.346699 0.482811 0.954264
v 0.250045 -0.030600 0.274540
v 0.183549 0.392912 0.791032
v -0.115979 -0.140154 -0.222482
v 0.209349 -0.203387 -0.843679
v 0.225348 -0.240077 -0.468134
v 0.025810 -0.173914 -0.564559
v 0.520178 -0.218482 0.040185
v 0.688511 -0.128583 0.365654
v 0.108036 -0.109262 0.214143
v 0.380706 -0.118922 0.342054
vn 0.7932 -0.2675 0.5470
vn 0.0743 0.8983 0.4330
vn -0.3246 0.8587 -0.3966
vn 0.1957 -0.3902 -0.8997
vn 0.1075 0.0569 -0.9926
vn 0.7459 -0.4072 0.5272
vn -0.1356 -0.9515 0.2761
vn -0.8760 -0.4823 0.0089
vn -0.4548 0.6973 -0.5541
vn 0.1075 0.7555 0.6463
vn -0.4433 -0.6466 0.6208
vn -0.2987 -0.9540 -0.0270
vn -0.3979 -0.9144 -0.0747
vn -0.3294 -0.6843 0.6506
vn -0.8817 -0.2862 0.3750
vn -0.3959 -0.9034 -0.1650
vn 0.8231 0.4494 -0.3470
vn 0.7905 0.4851 -0.3738
vn -0.4608 -0.4978 0.7347
vn -0.8987 -0.2618 0.3518
vn -0.8634 -0.4964 0.0900
vn -0.8293 -0.5532 0.0786
vn -0.2774 -0.6971 0.6612
vn 0.5604 -0.8216 -0.1041
vn 0.5795 -0.8115 -0.0756
vn -0.0812 -0.5371 0.8396
usemtl Material
s off
f 9//1 4//1 6//1
f 6//2 5//2 22//2 2//2
f 8//3 6//3 4//3 18//3
f 2//4 9//4 6//4
f 2//5 21//5 7//5 9//5
f 7//6 19//6 4//6 9//6
f 24//7 23//7 7//7 21//7
f 7//8 13//8 8//8 17//8
f 1//9 6//9 10//9
f 6//10 3//10 10//10
f 16//11 7//11 23//11 5//11
f 7//12 17//12 20//12 19//12
f 17//13 8//13 20//13
f 5//14 23//14 24//14
usemtl Material.001
f 10//15 3//15 13//15 7//15
f 20//16 8//16 18//16
f 3//17 6//17 8//17 11//17
f 6//18 1//18 14//18 5//18
f 1//19 16//19 14//19
f 1//20 10//20 7//20 16//20
f 8//21 13//21 11//21
f 13//22 3//22 11//22
f 14//23 16//23 5//23
f 19//24 20//24 18//24 4//24
f 22//25 24//25 21//25 2//25
f 5//26 24//26 22//26
